<svg id="svg" version="1.1" xmlns="http://www.w3.org/2000/svg" xmlns:xlink="http://www.w3.org/1999/xlink" width="400" height="400" viewBox="0, 0, 400,400"><g id="svgg"><path id="path0" d="M161.500 0.287 C 160.235 0.371,159.200 0.611,159.200 0.820 C 159.200 1.029,158.480 1.200,157.600 1.200 C 156.720 1.200,156.000 1.380,156.000 1.600 C 156.000 1.820,155.381 2.000,154.624 2.000 C 153.867 2.000,153.136 2.180,153.000 2.400 C 152.864 2.620,152.324 2.800,151.800 2.800 C 151.276 2.800,150.736 2.980,150.600 3.200 C 150.464 3.420,150.003 3.600,149.576 3.600 C 149.149 3.600,148.800 3.780,148.800 4.000 C 148.800 4.220,148.260 4.400,147.600 4.400 C 146.940 4.400,146.400 4.580,146.400 4.800 C 146.400 5.020,146.040 5.200,145.600 5.200 C 145.160 5.200,144.800 5.380,144.800 5.600 C 144.800 5.820,144.440 6.000,144.000 6.000 C 143.560 6.000,143.200 6.180,143.200 6.400 C 143.200 6.620,142.930 6.800,142.600 6.800 C 142.270 6.800,142.000 6.980,142.000 7.200 C 142.000 7.420,141.640 7.600,141.200 7.600 C 140.760 7.600,140.400 7.780,140.400 8.000 C 140.400 8.220,140.136 8.400,139.814 8.400 C 139.001 8.400,136.400 9.676,136.400 10.074 C 136.400 10.253,136.080 10.400,135.688 10.400 C 135.297 10.400,134.717 10.760,134.400 11.200 C 134.083 11.640,133.569 12.000,133.259 12.000 C 132.948 12.000,132.403 12.324,132.047 12.719 C 131.691 13.114,130.770 13.872,130.000 14.404 C 129.230 14.935,128.123 15.871,127.540 16.485 C 126.956 17.098,126.358 17.600,126.209 17.600 C 125.806 17.600,120.800 22.835,120.800 23.257 C 120.800 23.457,120.035 24.399,119.100 25.350 C 116.902 27.586,115.216 29.691,115.207 30.212 C 115.203 30.438,114.840 30.883,114.400 31.200 C 113.960 31.517,113.600 32.014,113.600 32.305 C 113.600 32.596,113.240 33.220,112.800 33.692 C 112.360 34.164,112.000 34.787,112.000 35.075 C 112.000 35.364,111.820 35.600,111.600 35.600 C 111.380 35.600,111.200 35.960,111.200 36.400 C 111.200 36.840,111.020 37.200,110.800 37.200 C 110.580 37.200,110.400 37.560,110.400 38.000 C 110.400 38.440,110.220 38.800,110.000 38.800 C 109.780 38.800,109.600 39.049,109.600 39.354 C 109.600 39.659,109.331 40.424,109.002 41.054 C 108.674 41.684,108.404 42.515,108.402 42.900 C 108.401 43.285,108.220 43.600,108.000 43.600 C 107.780 43.600,107.600 44.050,107.600 44.600 C 107.600 45.150,107.420 45.600,107.200 45.600 C 106.980 45.600,106.800 46.140,106.800 46.800 C 106.800 47.460,106.620 48.000,106.400 48.000 C 106.180 48.000,106.000 48.540,106.000 49.200 C 106.000 49.860,105.820 50.400,105.600 50.400 C 105.380 50.400,105.200 51.120,105.200 52.000 C 105.200 52.880,105.020 53.600,104.800 53.600 C 104.580 53.600,104.400 54.320,104.400 55.200 C 104.400 56.080,104.220 56.800,104.000 56.800 C 103.778 56.800,103.600 57.867,103.600 59.200 C 103.600 60.533,103.422 61.600,103.200 61.600 C 102.944 61.600,102.800 65.067,102.800 71.200 C 102.800 77.333,102.944 80.800,103.200 80.800 C 103.422 80.800,103.600 81.867,103.600 83.200 C 103.600 84.533,103.778 85.600,104.000 85.600 C 104.220 85.600,104.400 86.410,104.400 87.400 C 104.400 88.390,104.580 89.200,104.800 89.200 C 105.020 89.200,105.200 89.740,105.200 90.400 C 105.200 91.060,105.380 91.600,105.600 91.600 C 105.820 91.600,106.000 92.129,106.000 92.776 C 106.000 93.423,106.180 94.064,106.400 94.200 C 106.620 94.336,106.800 94.887,106.800 95.424 C 106.800 95.961,106.980 96.400,107.200 96.400 C 107.420 96.400,107.600 96.940,107.600 97.600 C 107.600 98.260,107.780 98.800,108.000 98.800 C 108.220 98.800,108.401 99.115,108.402 99.500 C 108.404 99.885,108.674 100.716,109.002 101.346 C 109.331 101.976,109.600 102.741,109.600 103.046 C 109.600 103.351,109.780 103.600,110.000 103.600 C 110.220 103.600,110.400 103.960,110.400 104.400 C 110.400 104.840,110.546 105.200,110.725 105.200 C 110.904 105.200,111.298 105.830,111.600 106.600 C 111.902 107.370,112.274 108.000,112.426 108.000 C 112.578 108.000,112.927 108.540,113.200 109.200 C 113.473 109.860,113.855 110.400,114.049 110.400 C 114.242 110.400,114.400 110.672,114.400 111.004 C 114.400 111.336,114.940 112.172,115.600 112.863 C 116.260 113.554,116.800 114.290,116.800 114.499 C 116.800 114.708,117.340 115.383,118.000 116.000 C 118.660 116.617,119.200 117.306,119.200 117.533 C 119.200 118.040,124.850 123.756,126.976 125.400 C 127.830 126.060,129.123 127.185,129.851 127.900 C 130.578 128.615,131.383 129.200,131.640 129.200 C 131.896 129.200,132.397 129.516,132.753 129.903 C 133.109 130.289,133.895 130.860,134.500 131.170 C 135.105 131.481,135.600 131.885,135.600 132.068 C 135.600 132.250,135.878 132.400,136.217 132.400 C 136.556 132.400,137.220 132.760,137.692 133.200 C 138.164 133.640,138.787 134.000,139.075 134.000 C 139.364 134.000,139.600 134.180,139.600 134.400 C 139.600 134.620,139.945 134.800,140.367 134.800 C 140.788 134.800,141.193 134.935,141.267 135.100 C 141.487 135.595,146.454 138.000,147.256 138.000 C 147.665 138.000,148.000 138.180,148.000 138.400 C 148.000 138.620,148.420 138.800,148.933 138.800 C 149.447 138.800,149.990 138.923,150.141 139.074 C 150.580 139.513,153.319 140.387,154.276 140.394 C 154.758 140.397,155.257 140.568,155.383 140.773 C 155.510 140.978,157.051 141.272,158.807 141.425 C 160.563 141.578,162.000 141.860,162.000 142.052 C 162.000 142.243,163.440 142.400,165.200 142.400 C 167.067 142.400,168.400 142.567,168.400 142.800 C 168.400 143.051,170.867 143.200,175.000 143.200 L 181.600 143.200 181.600 153.400 L 181.600 163.600 186.000 163.600 L 190.400 163.600 190.400 281.800 L 190.400 400.000 243.800 400.000 L 297.200 400.000 297.200 385.000 L 297.200 370.000 256.600 370.000 L 216.000 370.000 216.000 361.400 L 216.000 352.800 243.800 352.800 L 271.600 352.800 271.600 337.200 L 271.600 321.600 243.800 321.600 L 216.000 321.600 216.000 313.400 L 216.000 305.200 229.200 305.200 L 242.400 305.200 242.400 289.600 L 242.400 274.000 229.200 274.000 L 216.000 274.000 216.000 218.800 L 216.000 163.600 219.600 163.600 L 223.200 163.600 223.200 153.400 L 223.200 143.200 227.000 143.200 C 229.267 143.200,230.800 143.039,230.800 142.800 C 230.800 142.565,232.200 142.400,234.200 142.400 C 236.200 142.400,237.600 142.235,237.600 142.000 C 237.600 141.780,238.353 141.600,239.274 141.600 C 241.076 141.600,245.759 140.605,246.895 139.982 C 247.277 139.772,247.864 139.600,248.200 139.600 C 248.536 139.600,249.123 139.441,249.505 139.247 C 249.887 139.052,250.740 138.671,251.400 138.400 C 252.060 138.129,252.913 137.748,253.295 137.553 C 253.677 137.359,254.262 137.200,254.595 137.200 C 254.928 137.200,255.200 137.020,255.200 136.800 C 255.200 136.580,255.560 136.400,256.000 136.400 C 256.440 136.400,256.800 136.220,256.800 136.000 C 256.800 135.780,257.070 135.600,257.400 135.600 C 257.730 135.600,258.000 135.420,258.000 135.200 C 258.000 134.980,258.360 134.800,258.800 134.800 C 259.240 134.800,259.600 134.620,259.600 134.400 C 259.600 134.180,259.960 134.000,260.400 134.000 C 260.840 134.000,261.200 133.820,261.200 133.600 C 261.200 133.380,261.520 133.200,261.912 133.200 C 262.303 133.200,262.883 132.840,263.200 132.400 C 263.517 131.960,264.057 131.600,264.400 131.600 C 264.743 131.600,265.283 131.240,265.600 130.800 C 265.917 130.360,266.425 130.000,266.728 130.000 C 267.031 130.000,267.783 129.460,268.400 128.800 C 269.017 128.140,269.730 127.600,269.986 127.600 C 270.545 127.600,281.600 116.545,281.600 115.985 C 281.600 115.769,282.140 115.028,282.800 114.337 C 283.460 113.646,284.000 112.878,284.000 112.629 C 284.000 112.380,284.360 111.917,284.800 111.600 C 285.240 111.283,285.600 110.703,285.600 110.312 C 285.600 109.920,285.750 109.600,285.932 109.600 C 286.115 109.600,286.520 109.105,286.832 108.500 C 287.144 107.895,287.500 107.310,287.624 107.200 C 288.263 106.632,291.600 99.094,291.600 98.218 C 291.600 97.658,291.780 97.200,292.000 97.200 C 292.220 97.200,292.400 96.851,292.400 96.424 C 292.400 95.997,292.580 95.536,292.800 95.400 C 293.020 95.264,293.200 94.713,293.200 94.176 C 293.200 93.639,293.380 93.200,293.600 93.200 C 293.820 93.200,294.000 92.581,294.000 91.824 C 294.000 91.067,294.180 90.336,294.400 90.200 C 294.620 90.064,294.800 89.333,294.800 88.576 C 294.800 87.819,294.980 87.200,295.200 87.200 C 295.420 87.200,295.600 86.311,295.600 85.224 C 295.600 84.137,295.780 83.136,296.000 83.000 C 296.221 82.863,296.400 81.063,296.400 78.976 C 296.400 76.725,296.562 75.200,296.800 75.200 C 297.040 75.200,297.200 73.608,297.200 71.224 C 297.200 69.004,297.023 67.138,296.800 67.000 C 296.580 66.864,296.400 65.143,296.400 63.176 C 296.400 61.059,296.237 59.600,296.000 59.600 C 295.780 59.600,295.600 58.610,295.600 57.400 C 295.600 56.190,295.420 55.200,295.200 55.200 C 294.980 55.200,294.800 54.480,294.800 53.600 C 294.800 52.720,294.620 52.000,294.400 52.000 C 294.180 52.000,294.000 51.460,294.000 50.800 C 294.000 50.140,293.820 49.600,293.600 49.600 C 293.380 49.600,293.200 49.060,293.200 48.400 C 293.200 47.740,293.020 47.200,292.800 47.200 C 292.580 47.200,292.400 46.660,292.400 46.000 C 292.400 45.340,292.243 44.800,292.050 44.800 C 291.858 44.800,291.585 44.226,291.445 43.524 C 291.133 41.967,287.189 34.000,286.730 34.000 C 286.548 34.000,286.400 33.680,286.400 33.288 C 286.400 32.897,286.040 32.317,285.600 32.000 C 285.160 31.683,284.800 31.143,284.800 30.800 C 284.800 30.457,284.440 29.917,284.000 29.600 C 283.560 29.283,283.200 28.828,283.200 28.590 C 283.200 27.899,272.148 16.000,271.506 16.000 C 271.338 16.000,270.459 15.280,269.552 14.400 C 268.645 13.520,267.695 12.800,267.440 12.800 C 267.185 12.800,266.717 12.440,266.400 12.000 C 266.083 11.560,265.503 11.200,265.112 11.200 C 264.720 11.200,264.400 11.035,264.400 10.834 C 264.400 10.633,263.320 9.958,262.000 9.335 C 260.680 8.711,259.600 8.066,259.600 7.901 C 259.600 7.735,259.240 7.600,258.800 7.600 C 258.360 7.600,257.999 7.465,257.997 7.300 C 257.993 6.941,256.056 6.000,255.320 6.000 C 255.034 6.000,254.800 5.820,254.800 5.600 C 254.800 5.380,254.350 5.200,253.800 5.200 C 253.250 5.200,252.800 5.020,252.800 4.800 C 252.800 4.580,252.440 4.400,252.000 4.400 C 251.560 4.400,251.200 4.220,251.200 4.000 C 251.200 3.780,250.660 3.600,250.000 3.600 C 249.340 3.600,248.800 3.420,248.800 3.200 C 248.800 2.980,248.260 2.800,247.600 2.800 C 246.940 2.800,246.400 2.620,246.400 2.400 C 246.400 2.180,245.781 2.000,245.024 2.000 C 244.267 2.000,243.536 1.820,243.400 1.600 C 243.264 1.380,242.569 1.200,241.856 1.200 C 241.143 1.200,240.335 0.975,240.060 0.700 C 239.584 0.223,168.112 -0.152,161.500 0.287 M233.100 25.500 C 233.196 25.787,233.936 26.000,234.833 26.000 C 235.695 26.000,236.400 26.180,236.400 26.400 C 236.400 26.620,236.929 26.800,237.576 26.800 C 238.223 26.800,238.864 26.980,239.000 27.200 C 239.136 27.420,239.687 27.600,240.224 27.600 C 240.761 27.600,241.200 27.780,241.200 28.000 C 241.200 28.220,241.650 28.400,242.200 28.400 C 242.750 28.400,243.200 28.580,243.200 28.800 C 243.200 29.020,243.560 29.200,244.000 29.200 C 244.440 29.200,244.800 29.380,244.800 29.600 C 244.800 29.820,245.160 30.000,245.600 30.000 C 246.040 30.000,246.400 30.180,246.400 30.400 C 246.400 30.620,246.720 30.800,247.112 30.800 C 247.503 30.800,248.083 31.160,248.400 31.600 C 248.717 32.040,249.257 32.400,249.600 32.400 C 249.943 32.400,250.483 32.760,250.800 33.200 C 251.117 33.640,251.612 34.000,251.899 34.000 C 252.186 34.000,253.209 34.765,254.172 35.700 C 255.135 36.635,256.706 38.138,257.662 39.040 C 259.995 41.242,261.680 43.202,262.368 44.516 C 262.680 45.112,263.085 45.600,263.268 45.600 C 263.450 45.600,263.600 45.920,263.600 46.312 C 263.600 46.703,263.960 47.283,264.400 47.600 C 264.840 47.917,265.200 48.497,265.200 48.888 C 265.200 49.280,265.380 49.600,265.600 49.600 C 265.820 49.600,266.000 49.960,266.000 50.400 C 266.000 50.840,266.180 51.200,266.400 51.200 C 266.620 51.200,266.800 51.560,266.800 52.000 C 266.800 52.440,266.980 52.800,267.200 52.800 C 267.420 52.800,267.600 53.250,267.600 53.800 C 267.600 54.350,267.780 54.800,268.000 54.800 C 268.220 54.800,268.400 55.250,268.400 55.800 C 268.400 56.350,268.580 56.800,268.800 56.800 C 269.020 56.800,269.200 57.430,269.200 58.200 C 269.200 58.970,269.380 59.600,269.600 59.600 C 269.820 59.600,270.000 60.219,270.000 60.976 C 270.000 61.733,270.180 62.464,270.400 62.600 C 270.620 62.736,270.800 63.996,270.800 65.400 C 270.800 66.804,270.980 68.064,271.200 68.200 C 271.420 68.336,271.600 69.686,271.600 71.200 C 271.600 72.714,271.420 74.064,271.200 74.200 C 270.980 74.336,270.800 75.697,270.800 77.224 C 270.800 78.808,270.628 80.000,270.400 80.000 C 270.180 80.000,270.000 80.720,270.000 81.600 C 270.000 82.480,269.820 83.200,269.600 83.200 C 269.380 83.200,269.200 83.740,269.200 84.400 C 269.200 85.060,269.020 85.600,268.800 85.600 C 268.580 85.600,268.400 86.140,268.400 86.800 C 268.400 87.460,268.220 88.000,268.000 88.000 C 267.780 88.000,267.600 88.360,267.600 88.800 C 267.600 89.240,267.420 89.600,267.200 89.600 C 266.980 89.600,266.800 89.960,266.800 90.400 C 266.800 90.840,266.620 91.200,266.400 91.200 C 266.180 91.200,266.000 91.560,266.000 92.000 C 266.000 92.440,265.820 92.800,265.600 92.800 C 265.380 92.800,265.200 93.070,265.200 93.400 C 265.200 93.730,265.020 94.000,264.800 94.000 C 264.580 94.000,264.400 94.360,264.400 94.800 C 264.400 95.240,264.250 95.600,264.068 95.600 C 263.885 95.600,263.481 96.095,263.170 96.700 C 262.860 97.305,262.326 98.070,261.984 98.400 C 261.642 98.730,260.925 99.630,260.392 100.400 C 258.971 102.450,258.785 102.671,256.659 104.829 C 255.592 105.913,254.533 106.800,254.306 106.800 C 254.079 106.800,253.603 107.133,253.247 107.541 C 252.891 107.948,251.970 108.603,251.200 108.997 C 250.430 109.390,249.710 109.822,249.600 109.956 C 249.093 110.575,243.249 113.600,242.559 113.600 C 242.252 113.600,242.000 113.736,242.000 113.903 C 242.000 114.269,239.133 115.200,238.006 115.200 C 237.563 115.200,237.200 115.380,237.200 115.600 C 237.200 115.820,236.581 116.000,235.824 116.000 C 235.067 116.000,234.336 116.180,234.200 116.400 C 234.064 116.620,233.074 116.800,232.000 116.800 C 230.926 116.800,229.936 116.980,229.800 117.200 C 229.639 117.461,219.204 117.600,199.800 117.600 C 180.396 117.600,169.961 117.461,169.800 117.200 C 169.664 116.980,168.573 116.800,167.376 116.800 C 166.179 116.800,165.200 116.620,165.200 116.400 C 165.200 116.180,164.480 116.000,163.600 116.000 C 162.720 116.000,162.000 115.820,162.000 115.600 C 162.000 115.380,161.460 115.200,160.800 115.200 C 160.140 115.200,159.600 115.020,159.600 114.800 C 159.600 114.580,159.285 114.401,158.900 114.403 C 158.269 114.406,151.980 111.456,151.000 110.698 C 149.811 109.778,147.512 108.400,147.165 108.400 C 146.386 108.400,137.200 98.622,137.200 97.792 C 137.200 97.564,136.840 97.117,136.400 96.800 C 135.960 96.483,135.600 95.903,135.600 95.512 C 135.600 95.120,135.420 94.800,135.200 94.800 C 134.980 94.800,134.800 94.545,134.800 94.233 C 134.800 93.922,134.665 93.607,134.500 93.533 C 134.068 93.341,132.400 90.028,132.400 89.362 C 132.400 89.053,132.220 88.800,132.000 88.800 C 131.780 88.800,131.600 88.440,131.600 88.000 C 131.600 87.560,131.420 87.200,131.200 87.200 C 130.980 87.200,130.800 86.660,130.800 86.000 C 130.800 85.340,130.620 84.800,130.400 84.800 C 130.180 84.800,130.000 84.080,130.000 83.200 C 130.000 82.320,129.820 81.600,129.600 81.600 C 129.380 81.600,129.200 80.880,129.200 80.000 C 129.200 79.120,129.020 78.400,128.800 78.400 C 128.549 78.400,128.400 75.800,128.400 71.400 C 128.400 67.000,128.549 64.400,128.800 64.400 C 129.020 64.400,129.200 63.500,129.200 62.400 C 129.200 61.300,129.380 60.400,129.600 60.400 C 129.820 60.400,130.000 59.781,130.000 59.024 C 130.000 58.267,130.180 57.536,130.400 57.400 C 130.620 57.264,130.800 56.803,130.800 56.376 C 130.800 55.949,130.980 55.600,131.200 55.600 C 131.420 55.600,131.600 55.150,131.600 54.600 C 131.600 54.050,131.780 53.600,132.000 53.600 C 132.220 53.600,132.400 53.240,132.400 52.800 C 132.400 52.360,132.580 52.000,132.800 52.000 C 133.020 52.000,133.200 51.640,133.200 51.200 C 133.200 50.760,133.380 50.400,133.600 50.400 C 133.820 50.400,134.000 50.040,134.000 49.600 C 134.000 49.160,134.180 48.800,134.400 48.800 C 134.620 48.800,134.800 48.480,134.800 48.088 C 134.800 47.697,135.160 47.117,135.600 46.800 C 136.040 46.483,136.400 45.985,136.400 45.694 C 136.400 45.402,136.850 44.714,137.400 44.164 C 137.950 43.614,138.400 43.018,138.400 42.840 C 138.400 42.343,145.968 34.800,146.467 34.800 C 146.709 34.800,147.197 34.484,147.553 34.097 C 147.909 33.711,148.695 33.140,149.300 32.830 C 149.905 32.519,150.400 32.115,150.400 31.932 C 150.400 31.750,150.760 31.600,151.200 31.600 C 151.640 31.600,152.000 31.420,152.000 31.200 C 152.000 30.980,152.270 30.800,152.600 30.800 C 152.930 30.800,153.200 30.620,153.200 30.400 C 153.200 30.180,153.434 30.000,153.720 30.000 C 154.456 30.000,156.393 29.059,156.397 28.700 C 156.399 28.535,156.760 28.400,157.200 28.400 C 157.640 28.400,158.000 28.220,158.000 28.000 C 158.000 27.780,158.540 27.600,159.200 27.600 C 159.860 27.600,160.400 27.420,160.400 27.200 C 160.400 26.980,160.940 26.800,161.600 26.800 C 162.260 26.800,162.800 26.620,162.800 26.400 C 162.800 26.180,163.574 26.000,164.520 26.000 C 165.466 26.000,166.411 25.829,166.620 25.620 C 167.522 24.718,232.800 24.600,233.100 25.500 " stroke="none" fill="#040404" fill-rule="evenodd"></path><path id="path1" d="" stroke="none" fill="#080404" fill-rule="evenodd"></path><path id="path2" d="" stroke="none" fill="#080404" fill-rule="evenodd"></path><path id="path3" d="" stroke="none" fill="#080404" fill-rule="evenodd"></path><path id="path4" d="" stroke="none" fill="#080404" fill-rule="evenodd"></path></g></svg>